<?xml version="1.0" encoding="utf-8"?>
<!-- Generator: Adobe Illustrator 27.5.0, SVG Export Plug-In . SVG Version: 6.00 Build 0)  -->
<svg version="1.1" id="Layer_1" xmlns="http://www.w3.org/2000/svg" xmlns:xlink="http://www.w3.org/1999/xlink" x="0px" y="0px"
	 viewBox="0 0 211.142 337.081" style="enable-background:new 0 0 211.142 337.081;" xml:space="preserve">
<g>
	<g>
		<path style="fill:#AC4A26;" d="M140.38,183.43c-5.7-11.793,0.869-30.35,0.869-30.35l-43.023,1.35l-43.022-1.35
			c0,0,6.57,18.557,0.869,30.35c-5.701,11.793-25.491,16.51-19.541,49.531c5.95,33.021,18.671,92.38,18.671,92.38
			s10.972,3.702,30.988,5.836h24.07c20.015-2.134,30.988-5.836,30.988-5.836s12.721-59.359,18.671-92.38
			C165.871,199.94,146.08,195.223,140.38,183.43z"/>
		<path style="opacity:0.49;fill:#76818A;" d="M140.38,183.43c-5.7-11.793,0.869-30.35,0.869-30.35l-43.023,1.35l-43.023-1.35
			c0,0,6.57,18.557,0.87,30.35c-5.701,11.793-25.491,16.511-19.541,49.532c5.951,33.021,18.671,92.38,18.671,92.38
			s10.972,3.702,30.988,5.836h24.07c20.016-2.134,30.988-5.836,30.988-5.836s12.721-59.359,18.671-92.38
			C165.871,199.94,146.08,195.223,140.38,183.43z M119.93,199.09c-1.903,1.831-4.104,3.359-6.302,4.81
			c-4.614,3.048-9.492,5.648-14.204,8.535c-2.145,1.314-3.98,2.943-5.738,4.748c-3.02,3.102-5.572,6.632-7.714,10.388
			c-4.337,7.607-7.025,16.082-8.706,24.646c-2.041,10.396-3.233,20.908-4.128,31.457c-0.315,3.715-0.637,7.425-0.989,11.136
			c-0.296,3.122-0.649,6.314-1.665,9.297c-0.809,2.374-2.122,4.691-4.64,5.499c-1.161,0.372-2.378,0.221-3.464-0.307
			c-1.273-0.619-2.313-1.676-3.184-2.77c-1.181-1.481-2.14-3.127-2.995-4.812c-2.278-4.487-3.918-9.301-5.381-14.105
			c-1.691-5.553-3.1-11.192-4.372-16.855c-1.2-5.342-2.27-10.713-3.243-16.101c-0.685-3.794-1.326-7.596-1.893-11.409
			c-0.734-4.941-1.368-9.912-1.622-14.902c-0.333-6.544-0.065-13.399,2.318-19.58c0.482-1.249,1.06-2.459,1.728-3.616
			c0.203-0.386,0.414-0.768,0.637-1.145c3.069-5.171,7.912-8.875,13.408-11.178c5.827-2.442,12.192-3.426,18.467-3.776
			c6.328-0.353,12.679-0.038,18.983,0.55c2.198,0.205,4.352,0.366,6.559,0.412c2.896,0.06,5.794,0.135,8.683,0.353
			c2.784,0.21,5.658,0.477,8.331,1.328c1.489,0.474,3.524,1.323,3.629,3.149C122.528,196.509,121.03,198.033,119.93,199.09z"/>
		<path style="opacity:0.49;fill:#76818A;" d="M68.92,164.566c9.185,0.567,18.392,0.612,27.591,0.616
			c8.664,0.003,17.331-0.006,25.99-0.336c5.401-0.206,10.803-0.535,16.184-1.065c0.931-6.087,2.564-10.701,2.564-10.701
			l-43.023,1.35l-43.023-1.35c0,0,1.594,4.51,2.531,10.493C61.452,164.011,65.185,164.335,68.92,164.566z"/>
	</g>
	<g>
		<path style="fill:#2E4A17;" d="M207.884,70.567c-0.669-2.624-5.136-3.618-7.257-4.374c-3.831-1.366-7.767-2.427-11.754-3.222
			c-8.055-1.604-16.329-2.204-24.53-1.706c-15.246,0.925-31.141,5.791-43.243,15.388c-6.14,4.869-10.627,11.064-14.526,17.796
			c-0.43,0.743-0.849,1.495-1.258,2.251c-0.817-4.425-2.343-8.682-4.957-12.501c-4.431-6.473-11.545-9.642-19.284-9.618
			c-16.37,0.05-31.555,10.478-41.819,22.49c-10.526,12.32-17.307,27.127-22.328,42.41c-1.108,3.373-5.307,14.91,0.91,16.004
			c2.628,0.462,5.157-1.742,6.926-3.382c2.066-1.916,3.8-4.146,5.883-6.044c8.419-7.672,18.229-14.25,29.017-18.055
			c2.35-0.829,4.733-1.591,7.141-2.252c-7.333,4.601-14.091,10.118-19.749,16.509c-10.811,12.21-18.793,26.764-22.209,42.753
			c-1.706,7.985-3.822,17.059-0.848,24.997c0.253,0.675,0.978,1.017,1.683,0.813c3.766-1.089,5.896-5.043,7.931-8.097
			c3.146-4.72,6.864-9.164,10.55-13.469c2.253-2.632,4.699-4.943,7.243-7.195c-1.281,3.167-2.351,6.397-3.393,9.395
			c-1.242,3.572-2.782,6.996-4.09,10.537c-1.033,2.796-2.777,7.495-0.364,10.059c2.706,2.876,8.215,0.438,11.147-0.783
			c5.221-2.175,10.293-4.665,15.104-7.646c10.909-6.76,20.683-15.874,29.432-25.208c4.464-4.763,8.654-9.801,12.835-14.816
			c-0.469,1.889-0.952,3.774-1.453,5.654c-1.728,6.484-4.489,12.891-4.756,19.672c-0.065,1.641,1.948,1.024,2.676,0.396
			c4.753-4.097,7.518-9.918,10.475-15.323c2.517-4.602,5.671-8.867,8.08-13.52c2.74,8.037,5.481,16.033,8.964,23.808
			c1.544,3.448,3.263,7.073,6.083,9.675c1.256,1.158,2.766,1.933,4.503,1.469c3.986-1.064,4.938-6.374,5.541-9.796
			c0.957-5.443,1.126-11.032,1.258-16.545c0.046-1.945,0.012-3.923,0.001-5.902c0.217,0.675,0.417,1.342,0.615,1.973
			c0.981,3.123,2.076,6.151,3.284,9.196c3.002,7.573,6.313,15.164,8.322,23.077c0.991,3.907,1.662,7.89,2.16,11.888
			c0.314,2.525-0.013,6.457,1.561,8.646c1.407,1.956,3.877,0.457,5.014-0.96c2.206-2.752,3.577-6.502,4.922-9.735
			c5.776-13.885,8.025-29.424,4.775-44.222c-2.361-10.751-7.258-21.496-14.083-30.145c-3.143-3.983-6.842-7.459-10.987-10.027
			c5.857-4.078,11.443-8.51,16.669-13.396c6.763-6.321,12.758-13.4,18.698-20.484c3.086-3.68,6.145-7.383,9.247-11.049
			C205.148,76.176,208.574,73.271,207.884,70.567z"/>
		<path style="fill:#2E4A17;" d="M190.985,75.595c-3.904,0.262-7.825,0.537-11.717,0.957c-4.762,0.514-9.538,1.543-14.173,2.731
			c-4.642,1.19-9.211,2.674-13.641,4.503c-8.956,3.697-17.32,8.893-24.205,15.742c-0.463,0.46-1.488,0.156-1.4-0.58
			c0.705-5.945,4.097-11.05,8.154-15.293c3.956-4.138,8.599-7.602,13.373-10.737c4.84-3.178,9.859-6.068,15.102-8.528
			c2.514-1.179,5.098-2.284,7.731-3.29c-1.957-0.005-3.914,0.047-5.866,0.166c-15.246,0.925-31.141,5.791-43.243,15.388
			c-6.14,4.869-10.627,11.064-14.526,17.796c-0.43,0.743-0.849,1.495-1.258,2.251c-0.817-4.425-2.343-8.682-4.957-12.501
			c-4.431-6.473-11.545-9.642-19.284-9.618c-9.264,0.028-18.145,3.383-25.973,8.465c0.331-0.036,0.659-0.097,0.99-0.127
			c2.341-0.212,4.753-0.3,7.094-0.027c1.857,0.217,3.711,0.674,5.517,1.145c4.638,1.207,9.272,2.862,13.41,5.309
			c3.523,2.084,7.245,5.115,7.983,9.384c0.082,0.474-0.213,1.091-0.791,1.038c-9.223-0.855-18.359,1.68-26.721,5.411
			c-13.141,5.863-25.52,14.047-34.108,25.776c-5.367,7.331-8.983,15.667-10.972,24.427c0.117,0.03,0.211,0.082,0.336,0.104
			c2.628,0.462,5.157-1.742,6.926-3.382c2.066-1.916,3.8-4.146,5.883-6.044c8.419-7.672,18.229-14.25,29.017-18.055
			c2.35-0.829,4.733-1.591,7.141-2.252c-2.024,1.27-3.998,2.617-5.923,4.025c2.982-1.386,6.056-2.59,9.248-3.348
			c4.333-1.03,8.99-1.23,13.058,0.832c0.557,0.283,0.509,1.121,0,1.416c-7.433,4.316-14.534,9.216-21.193,14.651
			c-12.354,10.083-23.57,22.11-31.087,36.271c-3.654,6.884-6.363,14.296-7.604,22.005c-0.207,1.285-0.353,2.575-0.471,3.867
			c0.236,1.543,0.613,3.061,1.166,4.539c0.253,0.675,0.978,1.017,1.683,0.813c3.766-1.089,5.896-5.043,7.931-8.097
			c3.041-4.562,6.618-8.864,10.182-13.034c3.704-5.339,8.048-10.254,12.556-14.901c4.289-4.421,9.079-8.403,14.213-11.807
			c4.988-3.307,10.467-6.197,16.345-7.513c0.542-0.122,1.264,0.389,1.009,1.009c-2.679,6.519-6.807,12.309-11.132,17.828
			c-3.928,5.012-8.133,9.8-12.075,14.8c-3.756,4.764-7.295,9.697-10.961,14.529c-2.467,3.252-5,6.518-7.654,9.686
			c2.819,0.435,6.428-1.145,8.61-2.053c5.221-2.175,10.293-4.665,15.104-7.646c10.909-6.76,20.683-15.874,29.432-25.208
			c3.838-4.095,7.471-8.394,11.073-12.706c0.704-1.031,1.431-2.044,2.185-3.029c3.196-4.173,6.861-8.131,11.215-11.117
			c0.592-0.406,1.411,0.27,1.204,0.926c-1.183,3.755-2.662,7.407-4.323,10.975c-4.21,9.044-9.561,17.545-13.981,26.483
			c0.633,0.096,1.501-0.257,1.929-0.627c4.753-4.097,7.518-9.918,10.475-15.323c2.517-4.602,5.671-8.867,8.08-13.52
			c2.74,8.037,5.481,16.033,8.964,23.808c1.544,3.448,3.263,7.073,6.083,9.675c1.256,1.158,2.766,1.933,4.503,1.469
			c3.986-1.064,4.938-6.374,5.541-9.796c0.957-5.443,1.126-11.032,1.258-16.545c0.046-1.945,0.012-3.923,0.001-5.902
			c0.217,0.675,0.417,1.342,0.615,1.973c0.981,3.123,2.076,6.151,3.284,9.196c1.622,4.092,3.329,8.191,4.877,12.342
			c-0.722-5.015-1.561-10.011-2.781-14.935c-2.092-8.442-5.866-16.339-8.175-24.714c-0.215-0.782,0.798-1.39,1.371-0.798
			c5.184,5.358,9.724,11.347,13.292,17.901c5.925,10.884,9.009,23.081,9.441,35.442c0.204,5.845-0.187,11.683-1.015,17.464
			c0.014-0.017,0.033-0.034,0.046-0.051c2.206-2.752,3.577-6.502,4.922-9.735c5.776-13.885,8.025-29.424,4.775-44.222
			c-2.361-10.751-7.258-21.496-14.083-30.145c-3.143-3.983-6.842-7.459-10.987-10.027c5.857-4.078,11.443-8.51,16.669-13.396
			c6.763-6.321,12.758-13.4,18.698-20.484c3.086-3.68,6.145-7.383,9.247-11.049c0.653-0.772,1.67-1.758,2.555-2.848
			C201.128,75.019,196.042,75.256,190.985,75.595z"/>
		<path style="fill:#648833;" d="M179.583,142.245c-1.855-2.895-3.805-5.785-5.858-8.542c-4.326-5.806-9.599-10.95-15.701-14.872
			c-4.711-3.028-10.183-5.349-15.872-6.805c2.247-1.121,4.479-2.271,6.67-3.5c5.787-3.246,11.413-6.865,16.881-10.617
			c2.076-1.424,15.054-9.297,10.584-12.879c-1.794-1.438-4.588-0.919-6.652-0.521c-3.176,0.613-6.358,1.161-9.506,1.915
			c-7.147,1.713-14.102,4.119-20.765,7.219c-5.127,2.386-9.92,5.22-14.455,8.492c4.371-5.972,8.414-12.195,12.298-18.475
			c8.105-13.101,16.057-26.282,22.062-40.505c1.774-4.2,3.221-8.531,5.02-12.717c1.821-4.236,3.947-8.342,5.408-12.725
			c0.458-1.372-0.688-2.108-1.92-1.917c-7.511,1.168-14.224,7.275-19.901,11.944c-6.762,5.562-12.671,12.046-17.932,19.028
			c-5.271,6.995-9.841,14.526-13.656,22.408c-2.266,4.679-4.014,9.519-5.42,14.466c-0.007-0.118-0.004-0.235-0.012-0.353
			c-0.766-11.818-3.82-23.263-7.607-34.438C97.107,30.732,84.693,13.23,65.684,7.388c-5.405-1.661-11.133-2.505-16.789-2.303
			c-5.871,0.21-11.669,1.748-17.235,3.523c-3.703,1.181-7.427,2.436-11.037,3.885c-1.707,0.685-6.353,2.42-5.362,5.094
			c0.878,2.37,5.219,2.37,7.265,2.53c4.328,0.339,8.529,1.486,12.454,3.365c9.237,4.421,16.835,11.37,23.305,19.218
			c13.368,16.216,20.133,36.807,22.836,57.506c-5.126-5.085-12.752-7.423-20.008-8.426c-12.013-1.659-24.748-0.632-36.261,3.154
			c-7.614,2.504-14.676,6.474-20.774,11.675c-0.599,0.511-1.631,2.282-0.142,2.53c3.18,0.529,6.548-0.903,9.678-1.449
			c3.698-0.646,7.438-1.107,11.196-1.138c6.913-0.058,13.786,1.23,20.363,3.306c11.122,3.511,22.167,9.454,31.134,16.938
			c3.749,3.129,7.241,6.777,9.685,11.032c-6.246-0.937-13.699,3.107-18.573,5.895c-9.139,5.228-17.092,11.778-23.19,20.44
			c-3.529,5.014-7.668,10.537-8.088,16.872c-0.082,1.232,1.266,1.345,2.116,1.022c3.827-1.453,6.782-4.444,9.794-7.102
			c3.61-3.186,7.811-5.799,12.032-8.094c6.967-3.788,14.413-6.731,22.098-8.714c-6.551,5.938-10.754,14.284-13.643,22.598
			c-1.952,5.618-3.349,11.424-4.393,17.277c-0.501,2.807-0.911,5.631-1.232,8.464c-0.29,2.565-0.782,5.345-0.382,7.915
			c0.852,5.473,6.326,1.275,8.262-0.988c4.275-5,7.495-10.969,10.775-16.633c4.339-7.493,8.46-15.109,12.759-22.625
			c4.042-7.067,8.301-14.008,11.921-21.308c1.195-2.409,2.338-4.875,3.378-7.386c1.325,2.601,2.416,5.311,3.424,8.053
			c2.425,6.598,4.29,13.384,6.101,20.171c1.902,7.13,3.793,14.263,5.698,21.393c1.54,5.766,3.418,11.495,4.437,17.379
			c0.658,3.801,1.169,9.847,5.221,11.631c0.813,0.357,2.11-0.266,2.635-0.883c5.123-6.011,6.352-14.348,7.936-21.835
			c1.862-8.802,2.604-17.902,1.715-26.87c-0.82-8.273-3.409-16.368-7.753-23.48c-4.046-6.623-9.754-11.687-16.281-15.769
			c-0.629-0.394-1.371-0.856-2.176-1.337c7.081,0.086,14.191,1.065,21.032,2.395c6.732,1.309,13.506,2.677,19.939,5.107
			c6.991,2.641,12.387,6.872,18.01,11.665c1.152,0.982,3.662-0.607,3.559-2.021C182.884,147.811,181.317,144.949,179.583,142.245z"
			/>
		<path style="fill:#648833;" d="M179.583,142.245c-0.171-0.266-0.353-0.529-0.525-0.795c-6.116-5.91-13.588-10.504-21.462-13.466
			c-10.866-4.087-23.351-5.45-34.337-1.039c-0.819,0.329-1.294-0.822-0.798-1.37c2.156-2.383,4.618-4.473,7.293-6.251
			c4.612-3.064,9.841-5.235,15.283-6.443c-0.958-0.299-1.911-0.607-2.884-0.856c2.247-1.121,4.479-2.271,6.67-3.5
			c5.787-3.246,11.413-6.865,16.881-10.617c1.701-1.167,10.715-6.662,11.459-10.58c-7.574,2.34-14.921,5.437-22.341,8.194
			c-12.491,4.641-26.654,10.584-33.61,22.702c-0.463,0.806-1.766,0.261-1.499-0.632c0.894-2.992,2.185-5.859,3.694-8.589
			c2.148-3.888,4.755-7.543,7.664-10.922c-2.105,1.271-4.162,2.612-6.16,4.054c4.371-5.972,8.414-12.195,12.298-18.475
			c8.105-13.101,16.057-26.282,22.062-40.505c1.774-4.2,3.221-8.531,5.02-12.717c1.821-4.236,3.947-8.342,5.408-12.725
			c0.384-1.153-0.365-1.848-1.345-1.93c-0.368,0.276-0.746,0.545-1.107,0.825c-6.204,4.806-11.739,10.449-16.921,16.325
			c-5.339,6.054-10.311,12.387-14.834,19.077c-5.376,7.952-10.179,16.327-13.993,25.143c-1.896,4.382-3.277,8.822-4.426,13.454
			c-1.071,4.315-2.106,8.639-3.843,12.745c-0.287,0.68-1.328,0.42-1.498-0.196c-1.239-4.467-0.991-9.279-0.544-13.842
			c0.385-3.934,1.026-7.834,1.63-11.738c-0.71,2.004-1.367,4.024-1.948,6.068c-0.007-0.118-0.004-0.235-0.012-0.353
			c-0.766-11.818-3.82-23.263-7.607-34.438C97.107,30.732,84.693,13.23,65.684,7.388c-5.405-1.661-11.133-2.505-16.789-2.303
			c-5.871,0.21-11.669,1.748-17.235,3.523c-0.764,0.243-1.526,0.509-2.291,0.76c3.545-0.455,7.133-0.559,10.719-0.218
			c8.309,0.79,16.226,3.88,22.816,9.012c7.241,5.639,12.494,13.474,16.435,21.679c8.282,17.242,11.429,37.496,8.58,56.422
			c-0.137,0.91-1.314,0.635-1.581,0c-1.289-3.061-2.03-6.309-3.019-9.471c-1.655-5.293-4.495-9.938-8.449-13.771
			c3.035,8.791,5.048,17.977,6.25,27.186c-5.115-5.075-12.72-7.412-19.962-8.418c2.373,1.096,4.681,2.326,6.89,3.702
			c8.822,5.493,16.358,13.484,19.508,23.552c0.203,0.648-0.619,1.35-1.204,0.926c-5.528-4.003-11.188-7.883-17.299-10.951
			c-5.203-2.613-10.721-4.538-16.448-5.612c-6.491-1.217-13.144-1.271-19.726-1.073c-9.667,0.291-19.487,1.49-28.802,4.277
			c0,0,0,0,0,0c-0.599,0.511-1.631,2.282-0.142,2.53c3.18,0.529,6.548-0.903,9.678-1.449c3.698-0.646,7.438-1.107,11.196-1.138
			c6.913-0.058,13.786,1.23,20.363,3.306c11.122,3.511,22.167,9.454,31.134,16.938c3.749,3.129,7.241,6.777,9.685,11.032
			c-3.947-0.592-8.374,0.806-12.329,2.618c5.23-0.963,10.662-0.312,14.41,3.99c0.389,0.446,0.273,1.214-0.362,1.37
			c-4.91,1.214-9.711,2.883-14.348,4.901c-9.06,3.942-17.744,9.164-24.975,15.941c-4.709,4.413-8.828,9.615-11.398,15.511
			c0.408,0.093,0.886,0.044,1.268-0.101c3.827-1.453,6.782-4.444,9.794-7.102c3.61-3.186,7.811-5.799,12.032-8.094
			c6.967-3.788,14.413-6.731,22.098-8.714c-6.551,5.938-10.754,14.284-13.643,22.598c-1.952,5.618-3.349,11.424-4.393,17.277
			c-0.501,2.807-0.911,5.631-1.232,8.464c-0.29,2.565-0.782,5.345-0.382,7.915c0.416,2.675,1.938,3.033,3.61,2.442
			c1.795-7.37,4.646-14.553,7.456-21.465c2.373-5.837,4.689-11.702,7.307-17.435c2.803-6.14,5.893-12.149,9.285-17.985
			c3.172-5.458,6.507-10.998,10.395-15.982c1.134-1.454,3.143-3.996,5.316-3.285c1.854,0.607,2.259,3.2,2.477,4.839
			c0.102,0.766,0.167,1.537,0.209,2.31c0.351-0.791,0.709-1.579,1.04-2.38c1.325,2.601,2.416,5.311,3.424,8.053
			c2.425,6.598,4.29,13.384,6.101,20.171c1.902,7.13,3.793,14.263,5.698,21.393c1.54,5.766,3.418,11.495,4.437,17.379
			c0.658,3.801,1.169,9.847,5.221,11.631c0.813,0.357,2.11-0.266,2.635-0.883c1.523-1.786,2.673-3.794,3.619-5.908
			c0.535-7.114,0.859-14.213,0.431-21.362c-0.492-8.221-1.851-16.564-4.311-24.437c-4.274-13.684-12.717-25.304-23.852-34.246
			c-0.506-0.406-0.174-1.206,0.362-1.37c3.367-1.031,6.786-0.947,10.089-0.156c-0.243-0.156-0.477-0.32-0.722-0.473
			c-0.629-0.394-1.371-0.856-2.176-1.337c7.081,0.086,14.191,1.065,21.032,2.395c6.732,1.309,13.506,2.677,19.939,5.107
			c6.991,2.641,12.387,6.872,18.01,11.665c1.152,0.982,3.662-0.607,3.559-2.021C182.884,147.811,181.317,144.949,179.583,142.245z"
			/>
		<g>
			<path style="fill:#69AC45;" d="M146.979,115.735c-0.455-0.242-0.92-0.444-1.391-0.625c-12.802-5.747-30.163-4.532-40.192,5.716
				c0.222-1.684,0.753-3.378,1.18-4.895c0.735-2.617,1.602-5.218,1.948-7.924c0.738-5.775,1.125-12.722-2.396-17.709
				c-0.85-1.204-2.627-0.41-3.431,0.361c-2.243,2.153-2.291,5.333-2.39,8.233c-0.144,4.235-0.769,8.441-0.995,12.673
				c-0.1,1.873-0.177,3.836-0.181,5.83c-5.05-3.901-12.012-6.053-17.696-6.92c-9.099-1.388-18.024,1.493-25.79,6.194
				c-4.15,2.512-8.321,5.894-10.522,10.317c-0.225,0.453-0.326,1.247,0.374,1.375c4.586,0.836,8.946-2.186,13.41-2.905
				c5.789-0.931,11.703-1.15,17.533-0.488c5.43,0.617,10.876,1.595,16.006,3.531c2.288,0.864,4.655,1.882,6.467,3.572
				c1.649,1.539,2.838,3.552,4.212,5.325c0.037,0.048,0.087,0.065,0.127,0.108c-0.089,3.632-0.514,7.285-0.792,10.868
				c-0.378,4.849-0.487,9.626-0.085,14.475c0.605,7.281,0.728,15.578,5.122,21.771c0.987,1.391,3.535,0.106,3.861-1.272
				c0.524-2.225,0.516-4.4,0.451-6.672c-0.073-2.542,0.073-5.073,0.223-7.61c0.295-4.965,0.71-9.923,0.945-14.891
				c0.301-6.367,0.548-13.731-2.048-19.789c5.069,0.79,9.584,3.839,13.413,7.359c5.062,4.655,8.851,10.414,12.634,16.096
				c1.264,1.898,4.502-0.497,4.138-2.332c-1.59-8.024-4.995-15.852-10.966-21.581c-3.073-2.949-6.98-5.412-11.203-6.246
				c-3.096-0.611-6.18-0.388-9.267-0.059c5.057-2.801,10.248-5.391,15.781-7.061c2.952-0.891,5.953-1.73,8.989-2.276
				c2.674-0.481,5.718-0.825,8.345,0.113c0.387,0.171,0.785,0.33,1.16,0.514C145.758,119.793,149.02,116.82,146.979,115.735z"/>
			<path style="fill:#69AC45;" d="M137.08,114.533c-2.987-0.436-5.921-0.68-8.942-0.433c-4.214,0.344-8.496,1.326-12.348,3.096
				c-3.534,1.624-6.908,4.008-8.546,7.65c-0.402,0.894-1.683,0.222-1.499-0.632c0.366-1.699,0.884-3.443,1.545-5.141
				c-0.655,0.553-1.29,1.135-1.895,1.753c0.222-1.684,0.753-3.378,1.18-4.895c0.735-2.617,1.602-5.218,1.948-7.924
				c0.738-5.775,1.125-12.722-2.396-17.709c-0.055-0.078-0.123-0.125-0.185-0.187c-0.08,0.255-0.171,0.507-0.246,0.762
				c-1.381,4.706-2.225,9.814-2.266,14.724c-0.047,5.67,1.041,11.633-0.729,17.149c-0.169,0.525-0.966,0.88-1.37,0.362
				c-1.431-1.833-2.356-4.027-3.013-6.282c-2.358-1.675-5.05-3.02-7.825-4.039c3.598,1.699,6.787,4.27,8.127,8.163
				c0.253,0.735-0.614,1.204-1.205,0.926c-3.688-1.736-7.648-2.87-11.654-3.589c-7.811-1.401-16.043-1.246-23.75,0.691
				c-6.265,1.574-12.401,4.481-16.904,9.164c0.086,0.105,0.209,0.185,0.391,0.218c4.586,0.836,8.946-2.186,13.41-2.905
				c5.789-0.931,11.703-1.15,17.533-0.488c5.43,0.617,10.876,1.595,16.006,3.531c2.288,0.864,4.655,1.882,6.467,3.572
				c0.814,0.76,1.515,1.636,2.183,2.541c1.246-1.265,2.71-2.319,4.405-2.809c0.383-0.11,0.946,0.137,1.009,0.573
				c0.682,4.819,1.144,9.664,1.414,14.523c0.246,4.415,0.344,8.838,0.339,13.26c-0.004,4.284-0.176,8.566-0.105,12.85
				c0.068,4.055,0.243,8.118,0.264,12.174c1.155,0.197,2.686-0.789,2.934-1.838c0.524-2.225,0.516-4.4,0.451-6.672
				c-0.073-2.542,0.073-5.073,0.223-7.61c0.295-4.965,0.71-9.923,0.945-14.891c0.301-6.367,0.548-13.731-2.048-19.789
				c5.069,0.79,9.584,3.839,13.413,7.359c5.062,4.655,8.851,10.414,12.634,16.096c0.94,1.412,2.971,0.447,3.8-0.895
				c-0.093-0.559-0.161-1.121-0.286-1.674c-3.253-14.406-16.771-26.558-32.05-24.577c-0.686,0.089-1.115-0.981-0.58-1.4
				c0.858-0.672,1.788-1.244,2.75-1.759c-0.311,0.03-0.622,0.054-0.933,0.087c5.057-2.801,10.248-5.391,15.781-7.061
				c2.952-0.891,5.953-1.73,8.989-2.276c2.674-0.481,5.718-0.825,8.345,0.113c0.387,0.171,0.785,0.33,1.16,0.514
				c1.377,0.674,3.596-0.896,3.667-2.161C144.182,115.708,140.629,115.051,137.08,114.533z"/>
		</g>
		<g>
			<path style="fill:#69AC45;" d="M186.151,61.613c-0.399-0.213-0.808-0.39-1.222-0.549c-11.244-5.048-26.492-3.98-35.3,5.021
				c0.195-1.479,0.661-2.967,1.036-4.299c0.646-2.298,1.407-4.583,1.711-6.96c0.648-5.072,0.988-11.174-2.104-15.554
				c-0.747-1.058-2.307-0.36-3.013,0.317c-1.97,1.891-2.012,4.684-2.099,7.231c-0.126,3.72-0.676,7.414-0.874,11.13
				c-0.088,1.645-0.156,3.369-0.159,5.12c-4.436-3.426-10.55-5.316-15.542-6.078c-7.991-1.219-15.83,1.311-22.651,5.44
				c-3.645,2.207-7.309,5.176-9.241,9.062c-0.198,0.398-0.286,1.095,0.328,1.207c4.028,0.734,7.857-1.92,11.777-2.551
				c5.084-0.818,10.279-1.01,15.399-0.429c4.769,0.541,9.553,1.401,14.058,3.102c2.009,0.759,4.089,1.653,5.68,3.138
				c1.448,1.351,2.493,3.12,3.699,4.677c0.032,0.042,0.077,0.057,0.111,0.095c-0.078,3.19-0.451,6.398-0.696,9.546
				c-0.332,4.259-0.428,8.454-0.075,12.714c0.531,6.395,0.639,13.682,4.498,19.121c0.867,1.221,3.105,0.093,3.391-1.117
				c0.461-1.954,0.453-3.864,0.396-5.86c-0.064-2.233,0.064-4.456,0.196-6.684c0.259-4.36,0.624-8.715,0.83-13.079
				c0.264-5.592,0.481-12.06-1.798-17.38c4.452,0.694,8.418,3.372,11.78,6.464c4.446,4.088,7.774,9.146,11.097,14.137
				c1.11,1.667,3.954-0.437,3.635-2.048c-1.397-7.047-4.387-13.923-9.632-18.955c-2.699-2.59-6.13-4.754-9.839-5.486
				c-2.719-0.537-5.428-0.341-8.139-0.051c4.441-2.46,9.001-4.735,13.86-6.202c2.592-0.783,5.228-1.519,7.895-1.999
				c2.349-0.423,5.022-0.724,7.329,0.099c0.34,0.15,0.689,0.29,1.019,0.451C185.079,65.177,187.944,62.566,186.151,61.613z"/>
			<path style="fill:#69AC45;" d="M177.457,60.557c-2.623-0.383-5.2-0.597-7.854-0.381c-3.701,0.302-7.462,1.165-10.845,2.719
				c-3.104,1.426-6.067,3.52-7.506,6.719c-0.353,0.785-1.478,0.195-1.317-0.555c0.321-1.493,0.777-3.024,1.357-4.515
				c-0.575,0.486-1.133,0.996-1.664,1.539c0.195-1.479,0.661-2.967,1.036-4.299c0.646-2.298,1.407-4.583,1.711-6.96
				c0.648-5.072,0.988-11.174-2.104-15.554c-0.048-0.068-0.108-0.11-0.162-0.164c-0.07,0.224-0.15,0.445-0.216,0.669
				c-1.213,4.133-1.954,8.62-1.99,12.932c-0.041,4.98,0.914,10.217-0.641,15.061c-0.148,0.461-0.848,0.773-1.204,0.318
				c-1.257-1.61-2.07-3.537-2.646-5.518c-2.071-1.471-4.436-2.652-6.873-3.547c3.16,1.492,5.961,3.75,7.138,7.169
				c0.222,0.646-0.539,1.057-1.058,0.813c-3.239-1.525-6.717-2.521-10.236-3.152c-6.861-1.231-14.091-1.094-20.859,0.607
				c-5.502,1.383-10.892,3.936-14.846,8.049c0.075,0.092,0.184,0.162,0.343,0.192c4.028,0.734,7.857-1.92,11.777-2.551
				c5.084-0.818,10.279-1.01,15.399-0.429c4.769,0.541,9.553,1.401,14.058,3.102c2.009,0.759,4.089,1.653,5.68,3.138
				c0.715,0.667,1.331,1.437,1.917,2.232c1.094-1.111,2.38-2.037,3.869-2.467c0.336-0.097,0.831,0.12,0.886,0.503
				c0.598,4.232,1.005,8.488,1.242,12.756c0.216,3.878,0.302,7.762,0.298,11.646c-0.003,3.763-0.155,7.524-0.092,11.286
				c0.06,3.562,0.213,7.13,0.232,10.693c1.014,0.173,2.359-0.693,2.577-1.614c0.461-1.954,0.453-3.864,0.396-5.86
				c-0.064-2.233,0.064-4.456,0.196-6.684c0.259-4.36,0.624-8.715,0.83-13.079c0.264-5.592,0.481-12.06-1.798-17.38
				c4.452,0.694,8.418,3.372,11.78,6.464c4.446,4.088,7.774,9.146,11.097,14.137c0.826,1.24,2.609,0.393,3.338-0.786
				c-0.082-0.49-0.141-0.985-0.251-1.471c-2.857-12.653-14.73-23.325-28.149-21.585c-0.602,0.078-0.979-0.862-0.509-1.229
				c0.753-0.59,1.57-1.093,2.415-1.545c-0.273,0.027-0.546,0.047-0.819,0.076c4.441-2.46,9.001-4.735,13.86-6.202
				c2.592-0.783,5.228-1.519,7.895-1.999c2.349-0.423,5.022-0.724,7.329,0.099c0.34,0.15,0.689,0.29,1.019,0.451
				c1.21,0.592,3.159-0.787,3.22-1.898C183.695,61.589,180.574,61.012,177.457,60.557z"/>
		</g>
		<g>
			<path style="fill:#69AC45;" d="M83.781,48.654c-0.442,0.095-0.869,0.223-1.288,0.368c-11.849,3.391-22.817,14.037-23.747,26.597
				c-0.805-1.256-1.408-2.694-1.98-3.954c-0.988-2.173-1.879-4.41-3.179-6.423c-2.774-4.295-6.449-9.179-11.636-10.533
				c-1.253-0.327-1.996,1.213-2.099,2.185c-0.287,2.716,1.482,4.877,3.058,6.881c2.302,2.925,4.264,6.103,6.508,9.072
				c0.993,1.314,2.053,2.675,3.18,4.016c-5.599,0.241-11.492,2.738-15.799,5.374c-6.895,4.22-11.256,11.209-13.807,18.762
				c-1.364,4.037-2.25,8.669-1.222,12.885c0.105,0.432,0.487,1.022,1.03,0.711c3.552-2.035,4.768-6.534,7.358-9.543
				c3.359-3.903,7.206-7.399,11.494-10.256c3.995-2.661,8.205-5.088,12.745-6.692c2.025-0.715,4.191-1.373,6.365-1.264
				c1.978,0.099,3.917,0.778,5.843,1.19c0.052,0.011,0.096-0.006,0.146,0c1.997,2.489,3.78,5.182,5.623,7.745
				c2.492,3.469,5.123,6.738,8.14,9.766c4.529,4.546,9.31,10.046,15.767,11.716c1.45,0.375,2.433-1.931,1.871-3.04
				c-0.755-1.489-1.738-2.746-2.812-3.983c-1.731-1.993-4.393-5.395-5.959-7.52c-2.216-3.004-4.392-6.037-6.661-9.001
				c-3.403-4.445-7.408-9.529-12.58-12.126c3.85-2.34,8.608-2.85,13.172-2.654c6.034,0.258,11.839,1.98,17.597,3.652
				c1.923,0.559,2.741-2.883,1.458-3.909c-5.611-4.486-12.33-7.814-19.583-8.279c-3.733-0.24-7.751,0.318-11.058,2.15
				c-2.425,1.342-4.369,3.239-6.255,5.208c1.809-4.744,3.827-9.423,6.596-13.677c1.477-2.27,3.017-4.532,4.746-6.619
				c1.523-1.838,3.372-3.792,5.666-4.649c0.357-0.104,0.714-0.223,1.07-0.312C85.259,52.07,85.766,48.227,83.781,48.654z"/>
			<path style="fill:#69AC45;" d="M76.146,53.645c-2.367,1.479-4.604,3.177-6.539,5.189c-2.386,2.482-4.475,5.35-5.938,8.462
				c-1.453,3.091-2.368,6.602-1.406,9.975c0.236,0.828-1.004,1.102-1.364,0.425c-0.717-1.348-1.356-2.812-1.874-4.327
				c-0.127,0.742-0.223,1.492-0.279,2.25c-0.805-1.256-1.408-2.694-1.98-3.954c-0.988-2.173-1.879-4.41-3.179-6.423
				c-2.774-4.295-6.449-9.179-11.636-10.533c-0.081-0.021-0.154-0.014-0.23-0.021c0.09,0.216,0.172,0.437,0.267,0.651
				c1.737,3.941,4.063,7.849,6.816,11.169c3.179,3.833,7.286,7.221,9.221,11.926c0.184,0.448-0.15,1.138-0.715,1.019
				c-1.999-0.421-3.862-1.369-5.58-2.512c-2.532,0.211-5.101,0.833-7.54,1.72c3.378-0.897,6.975-0.976,10.079,0.878
				c0.586,0.35,0.27,1.156-0.284,1.304c-3.459,0.923-6.76,2.404-9.856,4.19c-6.038,3.482-11.476,8.248-15.554,13.913
				c-3.315,4.604-5.788,10.031-6.159,15.724c0.117,0.022,0.245,0.006,0.386-0.075c3.552-2.035,4.768-6.534,7.358-9.543
				c3.359-3.903,7.206-7.399,11.494-10.256c3.995-2.661,8.205-5.088,12.745-6.692c2.025-0.715,4.191-1.373,6.365-1.264
				c0.977,0.049,1.944,0.24,2.904,0.47c0.12-1.555,0.506-3.092,1.367-4.38c0.195-0.291,0.713-0.444,1.002-0.187
				c3.186,2.849,6.241,5.84,9.173,8.95c2.665,2.825,5.235,5.739,7.736,8.711c2.423,2.878,4.733,5.851,7.206,8.687
				c2.342,2.684,4.76,5.313,7.071,8.024c0.887-0.521,1.357-2.051,0.929-2.895c-0.755-1.489-1.738-2.746-2.812-3.983
				c-1.731-1.993-4.393-5.395-5.959-7.52c-2.216-3.004-4.392-6.037-6.661-9.001c-3.403-4.445-7.408-9.529-12.58-12.126
				c3.85-2.34,8.608-2.85,13.172-2.654c6.034,0.258,11.839,1.98,17.597,3.652c1.431,0.416,2.248-1.382,2.045-2.752
				c-0.379-0.322-0.743-0.661-1.14-0.962c-10.342-7.83-26.298-8.333-35.434,1.648c-0.41,0.448-1.304-0.027-1.182-0.611
				c0.196-0.937,0.496-1.848,0.85-2.738c-0.191,0.196-0.387,0.388-0.577,0.587c1.809-4.744,3.827-9.423,6.596-13.677
				c1.477-2.27,3.017-4.532,4.746-6.619c1.523-1.838,3.372-3.792,5.666-4.649c0.357-0.104,0.714-0.223,1.07-0.312
				c1.306-0.327,1.907-2.638,1.238-3.527C81.776,50.267,78.918,51.912,76.146,53.645z"/>
		</g>
	</g>
</g>
</svg>
