<svg version="1.1" id="Layer_1" xmlns="http://www.w3.org/2000/svg" xmlns:xlink="http://www.w3.org/1999/xlink" x="0px" y="0px"
	 width="100%" viewBox="0 0 1024 1024" enable-background="new 0 0 1024 1024" xml:space="preserve">
<path fill="#000000" opacity="1.000000" stroke="none" 
	d="
M257.897339,585.027893 
	C255.202606,584.010559 252.875961,583.090698 250.503311,582.310791 
	C239.244080,578.609741 232.164078,569.487122 230.935883,557.597351 
	C229.960800,548.157959 228.872849,538.780945 229.966934,529.245972 
	C231.089737,519.460754 227.801270,510.433929 223.772720,501.803223 
	C219.613297,492.892212 217.406143,483.955811 220.405426,474.267853 
	C221.848953,469.605133 220.453339,464.976349 220.022308,460.381165 
	C219.324142,452.938416 221.761154,447.398529 228.405457,443.735657 
	C235.160019,440.011993 239.783722,434.493713 243.563873,427.666992 
	C246.792633,421.836029 247.590500,416.186920 246.667618,409.935669 
	C245.409607,401.414520 249.204819,394.669891 257.321136,392.118225 
	C265.715424,389.479156 272.218964,384.059631 276.806061,377.182495 
	C282.518341,368.618439 290.141266,363.455078 299.389069,360.032990 
	C308.058380,356.824951 315.652802,351.670502 323.314056,346.704376 
	C328.421509,343.393677 331.359863,338.388885 332.012024,332.192993 
	C332.133026,331.043518 332.240417,329.815247 332.716614,328.792023 
	C340.893890,311.221405 351.691681,296.055847 370.069153,287.696991 
	C378.106049,284.041473 385.270782,278.753540 393.300568,275.008301 
	C398.322723,272.665863 403.625397,271.257965 408.755737,269.305908 
	C415.149170,266.873291 420.134796,263.063263 422.272156,256.308136 
	C423.470306,252.521378 425.705170,249.520569 428.628357,246.923569 
	C435.099396,241.174622 440.432861,234.332092 446.732269,228.366013 
	C455.629639,219.939362 465.897095,215.315231 477.826996,214.001190 
	C484.020447,213.319016 489.933258,211.896027 495.598389,209.268890 
	C505.040863,204.890030 514.557739,202.120285 524.896362,206.873657 
	C529.132996,208.821503 533.732239,208.174210 537.961914,205.995712 
	C539.737671,205.081116 541.811401,204.475388 543.220520,203.161682 
	C554.141724,192.980225 567.892029,192.529587 581.534729,191.989746 
	C589.648804,191.668655 597.759949,190.034744 605.933960,191.829056 
	C608.552551,192.403870 611.290344,192.705536 613.553284,194.074051 
	C626.848511,202.114410 641.723328,205.035477 656.721008,207.392639 
	C675.325378,210.316666 692.447205,216.367828 707.087219,228.718109 
	C712.699402,233.452530 719.659180,236.198288 726.170654,239.554825 
	C731.431641,242.266785 735.810730,245.963913 739.524780,250.615540 
	C742.110535,253.854126 744.813416,257.293549 748.193848,259.549713 
	C759.679871,267.215607 765.154053,278.829712 770.241882,290.908813 
	C773.929382,299.663605 777.381470,308.918365 784.202698,315.574249 
	C793.759827,324.899780 797.410278,336.441284 799.727539,348.829712 
	C802.962769,366.125916 810.935913,380.760681 824.006897,392.565918 
	C825.601868,394.006409 827.281738,395.463470 829.162109,396.460419 
	C848.335083,406.625641 859.502136,423.802124 869.231140,442.188477 
	C875.720886,454.453278 872.420349,465.394867 864.016602,475.381378 
	C859.838013,480.347076 855.771118,485.462433 851.126892,489.967010 
	C844.989624,495.919708 844.346008,502.907959 845.625366,510.687378 
	C847.025513,519.200867 849.006165,527.546631 849.316223,536.329712 
	C849.776733,549.374023 846.812622,561.767273 844.354126,574.290771 
	C842.551086,583.475830 841.189575,592.820312 841.384216,602.019531 
	C841.555603,610.121887 840.983154,617.911865 839.357910,625.740723 
	C835.473877,644.450806 828.759521,662.120728 819.717529,678.920959 
	C814.278259,689.027222 808.312561,698.738647 801.505554,708.070007 
	C789.193481,724.947876 786.285828,745.094788 784.147644,765.246521 
	C782.443787,781.305603 781.513367,797.478760 776.087280,812.894531 
	C771.207336,826.758545 763.644104,839.357788 757.394714,852.575500 
	C748.230408,871.958069 735.454346,888.619385 720.601929,903.812683 
	C709.153809,915.523621 696.033081,923.559143 679.022278,925.402283 
	C664.768494,926.946655 651.428772,932.973450 638.544495,939.084778 
	C630.031494,943.122681 621.617798,943.946472 612.811951,942.573364 
	C598.290710,940.309082 583.950745,940.925537 569.642700,943.953857 
	C565.769409,944.773682 562.467407,946.424438 560.089294,949.781494 
	C556.860962,954.338257 552.255188,957.257141 546.920288,958.177429 
	C529.383728,961.202637 511.997009,965.481812 494.011169,965.197754 
	C491.858795,965.163696 489.699097,965.521729 487.544373,965.715576 
	C471.280609,967.178955 457.099457,963.399536 447.109863,949.404358 
	C443.243835,943.988220 438.225372,939.816162 432.585846,936.625916 
	C424.458801,932.028564 421.432861,923.919434 418.351776,916.227173 
	C416.119507,910.653992 415.192474,904.378723 414.781067,898.161438 
	C414.257019,890.242188 409.047302,884.426941 404.628876,878.460632 
	C399.783386,871.917480 394.127563,866.001404 390.917816,858.303589 
	C390.063904,856.255676 388.115326,854.614136 386.508484,852.940369 
	C382.615906,848.885498 381.486053,843.731323 383.577545,839.045471 
	C388.133728,828.837585 385.244476,819.618896 380.600525,810.854065 
	C376.098419,802.356995 372.771912,793.594238 370.765717,784.260193 
	C369.065552,776.349915 365.737244,769.314514 361.272064,762.460449 
	C354.003387,751.302979 354.302582,739.137512 359.447937,727.080139 
	C361.668884,721.875793 364.065643,716.728088 366.714630,711.730713 
	C368.766296,707.860046 369.568665,703.858398 368.853027,699.663940 
	C366.910492,688.278076 366.622192,676.573486 359.121918,666.561707 
	C354.972382,661.022644 354.485992,653.423401 351.765045,646.994690 
	C347.051514,635.858215 340.314362,626.430115 328.530243,621.638794 
	C322.617096,619.234619 317.078979,615.934875 312.828247,611.215576 
	C301.386505,598.512451 285.944885,593.810120 270.339539,589.558044 
	C266.132019,588.411621 261.979889,587.485901 257.897339,585.027893 
M623.291504,331.741333 
	C620.981079,330.335693 621.565796,328.232635 622.353882,326.444336 
	C625.214233,319.953918 624.983276,313.109406 624.532349,306.347961 
	C624.249939,302.113220 623.190125,297.806396 619.307251,294.876038 
	C622.832397,308.826569 619.978027,322.106842 614.948059,335.472687 
	C619.266907,335.546631 621.729919,334.024750 624.853455,332.024689 
	C636.821533,330.275726 648.793091,328.396271 661.685547,334.156860 
	C653.194885,324.992004 632.126526,325.981964 623.291504,331.741333 
M623.544861,757.378662 
	C624.124695,753.498779 626.246765,750.967529 630.273254,751.823914 
	C634.117676,752.641541 635.309631,755.682617 634.689636,759.543884 
	C633.082031,769.556213 631.443054,779.566650 630.066589,789.612122 
	C628.424316,801.598022 626.198364,813.311523 618.013062,822.912170 
	C617.790649,823.172913 617.984985,823.789062 617.984985,824.208801 
	C619.651794,824.850769 620.631409,823.749939 621.690674,823.047729 
	C628.988342,818.210083 633.603760,811.337036 635.500244,802.955505 
	C637.582214,793.754211 639.107117,784.415283 640.577881,775.089539 
	C644.757935,748.583374 648.725220,722.043518 652.953003,695.545166 
	C653.481445,692.233154 654.014648,689.248108 649.906128,688.577637 
	C645.332092,687.831238 645.661926,691.626038 645.187622,694.522888 
	C642.929260,708.316040 640.639404,722.104065 638.388000,735.898376 
	C637.774841,739.654968 635.947754,742.513123 631.859253,741.755249 
	C627.753662,740.994263 626.484375,737.815735 627.183228,733.738220 
	C628.672974,725.047119 630.226135,716.360229 631.394775,707.623657 
	C631.943848,703.519104 633.824585,699.286194 632.616455,695.304260 
	C631.538757,691.752625 632.481201,690.040283 635.282715,688.402527 
	C636.614807,687.623840 638.844788,687.173889 638.303406,685.004089 
	C637.762146,682.834229 635.467346,683.003418 633.747498,682.597595 
	C632.788940,682.371338 631.760071,682.388184 630.762878,682.388123 
	C607.430237,682.387207 584.096252,682.269287 560.765808,682.501099 
	C555.060303,682.557678 549.208740,683.094360 543.970093,685.897522 
	C544.130310,689.471863 548.146973,689.892761 549.031250,693.607666 
	C537.214111,694.329773 525.828003,694.588013 514.433289,693.464600 
	C512.413757,693.265503 510.985931,691.724182 511.548065,689.551086 
	C512.724670,685.002747 510.021484,683.894592 506.495026,683.569763 
	C503.190735,683.265259 500.029266,682.257202 496.633881,682.269897 
	C466.135010,682.383667 435.635620,682.348389 405.136383,682.367493 
	C403.638885,682.368469 402.109161,682.289734 400.649963,682.554199 
	C396.162994,683.367493 394.023041,686.764343 394.795807,691.264832 
	C395.748840,696.815125 397.063019,702.292419 397.446411,707.959839 
	C397.694305,711.624390 399.266571,715.184570 403.828125,714.648987 
	C408.138916,714.142944 408.535431,710.646301 408.239288,707.042603 
	C407.890045,702.792297 407.619171,698.535583 407.320770,694.371338 
	C413.372772,692.193909 414.384460,692.710083 415.255157,698.445129 
	C415.777252,701.883972 415.987335,705.371216 416.538208,708.804565 
	C420.789093,735.297791 425.096497,761.781982 429.369629,788.271667 
	C430.821869,797.274597 431.652008,806.450623 437.056763,814.287781 
	C441.211945,820.312988 446.045929,824.098572 454.234283,824.029663 
	C498.396942,823.657898 542.564026,823.825256 586.729614,823.772278 
	C602.771667,823.752991 614.133484,814.026855 616.799194,798.086670 
	C619.022827,784.789856 621.185730,771.482910 623.544861,757.378662 
M495.998474,351.490784 
	C485.269287,356.259338 475.435272,362.373749 467.027039,370.657898 
	C458.542419,379.017365 451.488129,388.524078 446.579285,399.294403 
	C438.755157,416.460938 436.520386,434.549927 439.347015,453.300262 
	C441.030884,464.470093 443.935852,475.073761 451.137482,484.040894 
	C472.983368,511.242371 501.305664,522.046814 535.651489,516.770020 
	C573.916077,510.891205 605.864502,475.957550 607.480713,437.284851 
	C609.063782,399.408508 592.620483,371.131592 559.243225,353.013672 
	C549.322144,347.628265 538.484070,344.330750 527.202209,344.577179 
	C516.758789,344.805298 506.513916,347.324524 495.998474,351.490784 
M600.565857,372.104431 
	C602.657593,375.511139 604.857056,378.857086 606.819763,382.336609 
	C611.655396,390.909119 614.454285,392.222839 624.227783,390.253479 
	C625.525330,389.992004 626.857300,389.898773 628.152344,389.627716 
	C643.461731,386.423798 655.169495,378.542603 660.803223,363.447601 
	C664.703796,352.996307 659.282532,344.225922 648.349854,342.424103 
	C630.497620,339.481873 608.798950,350.370911 600.779663,366.316833 
	C599.958618,367.949524 599.041138,369.619141 600.565857,372.104431 
M420.567139,419.600067 
	C418.554993,416.278748 415.262787,414.624908 411.921173,413.105621 
	C398.912994,407.191498 385.980988,408.432129 373.185211,413.790039 
	C358.134613,420.092041 359.300812,432.885620 367.922302,442.757782 
	C380.244781,456.867798 404.494293,456.128448 418.895050,446.335388 
	C420.851746,445.004791 421.739838,443.235809 421.624847,440.826111 
	C421.299927,434.017334 421.077454,427.203705 420.567139,419.600067 
M416.066895,346.396149 
	C408.000610,343.688843 399.958740,341.022797 391.228668,343.174805 
	C380.886383,345.724274 377.794189,350.327576 381.656952,362.131073 
	C385.285431,373.218719 393.683960,380.789612 402.917999,387.129761 
	C408.766693,391.145538 415.393799,393.999756 422.941406,393.834442 
	C426.353821,393.759705 428.519623,392.692535 430.074463,389.610413 
	C432.468964,384.863861 434.931183,380.108673 437.868622,375.692322 
	C440.249908,372.112091 440.077759,369.019165 438.059753,365.504272 
	C433.071594,356.815979 426.002899,350.545715 416.066895,346.396149 
M523.349976,530.219727 
	C521.354492,530.219116 519.358826,530.239441 517.363647,530.214233 
	C509.336029,530.112854 508.142242,530.774780 505.044861,538.218445 
	C498.681519,553.510742 500.439850,568.620056 507.715912,582.879639 
	C514.349060,595.879272 526.435364,596.218506 534.576599,583.899780 
	C543.439026,570.489746 545.330383,555.856934 539.830566,540.586060 
	C535.967590,529.860291 535.223267,529.491699 523.349976,530.219727 
M670.537964,414.893219 
	C655.206787,407.321747 639.780090,405.735931 624.197388,414.161316 
	C621.779602,415.468597 619.882690,417.058075 619.467651,420.112183 
	C617.273682,436.254608 619.423401,441.242767 634.107056,447.302094 
	C648.236023,453.132538 662.476013,452.631287 675.174438,443.160431 
	C684.159302,436.459290 684.231750,426.362915 675.976196,418.810791 
	C674.514832,417.473969 672.779907,416.436127 670.537964,414.893219 
M581.815247,566.690979 
	C587.076904,571.182800 592.621887,574.654419 599.901611,571.492737 
	C607.733398,568.091248 609.673279,560.977722 609.443176,553.723328 
	C608.882324,536.039673 601.829224,521.596313 586.270447,511.987701 
	C582.802307,509.845886 580.001038,509.948547 576.722168,512.393372 
	C573.270081,514.967407 569.417236,517.007935 565.714417,519.239990 
	C564.122742,520.199402 562.401062,521.072327 562.417664,523.249084 
	C562.449280,527.393127 562.010498,531.533020 562.799011,535.680542 
	C565.175110,548.179443 572.076843,557.888611 581.815247,566.690979 
M438.816162,487.679718 
	C435.665649,483.158569 432.886566,478.413757 430.532410,473.437195 
	C429.195282,470.610535 426.930054,469.496033 424.058319,469.824463 
	C420.611115,470.218689 417.120239,470.327148 413.775940,471.575470 
	C400.086823,476.685364 389.614258,485.717407 382.938995,498.526794 
	C376.517181,510.849945 379.900146,516.562195 391.520050,519.361938 
	C408.004974,523.333862 431.205231,512.078979 438.912018,497.164703 
	C440.394806,494.295227 441.584381,491.332703 438.816162,487.679718 
M482.966919,529.568970 
	C483.685486,524.662842 481.381500,521.911072 476.940674,520.043457 
	C473.286194,518.506531 469.870758,516.320557 466.531525,514.143005 
	C464.310699,512.694763 462.560059,512.627380 460.157990,513.908508 
	C442.556000,523.296509 435.388580,538.943726 433.321808,557.802368 
	C432.153259,568.464966 440.886292,575.810425 452.981445,571.792297 
	C468.975983,566.478760 481.846893,548.529724 482.966919,529.568970 
M561.462158,329.133209 
	C559.983093,336.944946 562.130920,342.760010 570.231995,345.494659 
	C571.773499,346.015015 573.278992,346.948761 574.511292,348.023926 
	C579.000671,351.940735 583.278381,351.044006 587.592590,347.790924 
	C588.786377,346.890778 590.082214,346.127228 591.296021,345.252228 
	C604.038513,336.065857 612.011475,314.262329 607.720581,300.365936 
	C604.465027,289.822357 594.991638,286.037567 585.832947,292.124359 
	C572.826965,300.768036 564.738403,312.933289 561.462158,329.133209 
M469.460785,345.882904 
	C472.250122,344.390869 475.021454,342.863831 477.834534,341.417938 
	C480.060608,340.273743 481.382874,338.685883 481.699646,336.049835 
	C483.883026,317.879730 469.945923,296.111938 452.458832,290.536743 
	C443.151276,287.569305 438.208313,290.201538 436.541931,299.777313 
	C433.665985,316.303925 437.902710,331.098389 449.090302,343.553467 
	C457.828278,353.281464 458.072083,353.062469 469.460785,345.882904 
M502.812134,296.326050 
	C500.953705,306.558716 500.347961,316.689606 504.124115,326.733765 
	C505.585693,330.621338 507.893860,332.256683 511.978119,332.060333 
	C516.962280,331.820740 521.973877,331.637939 526.949707,331.894318 
	C531.363525,332.121765 533.884033,330.210907 536.227112,326.622986 
	C545.819092,311.934937 542.116028,289.407471 533.897095,277.846802 
	C531.744629,274.819153 529.020569,272.421906 525.694275,270.692963 
	C522.497314,269.031250 519.743530,269.376373 517.062378,271.869965 
	C510.046539,278.395050 505.280334,286.198761 502.812134,296.326050 
M618.933777,505.579895 
	C626.761047,512.204285 636.066284,515.689453 645.931091,517.505249 
	C657.133728,519.567200 664.539551,511.124420 661.745483,500.006195 
	C657.787354,484.256073 638.598999,469.427643 621.290527,468.219452 
	C615.395020,467.807892 611.350830,469.130707 609.317200,475.059143 
	C608.518372,477.387817 607.126099,479.546478 605.793884,481.649384 
	C604.390930,483.863861 604.585571,485.805481 605.587891,488.189148 
	C608.434509,494.958557 612.918640,500.386230 618.933777,505.579895 
M497.400787,632.124512 
	C487.812042,613.356934 466.156067,609.742249 451.543854,613.464844 
	C447.786316,614.422119 445.147308,616.375305 443.820679,620.390991 
	C441.452148,627.560425 443.909149,638.648438 450.075470,644.039185 
	C462.661377,655.042114 477.047852,658.054443 492.860107,652.367798 
	C502.188934,649.012817 503.120758,646.510193 499.695862,637.376587 
	C499.112762,635.821655 498.378967,634.323242 497.400787,632.124512 
M581.293579,650.851440 
	C587.910767,647.859131 593.825195,643.954834 598.070068,637.893372 
	C605.969482,626.613525 602.318115,616.841248 588.974731,613.339966 
	C568.080994,607.857483 551.073608,621.648621 544.314087,639.204590 
	C543.513306,641.284546 543.356689,643.515198 540.275391,641.586914 
	C540.932678,652.701050 564.396912,658.064636 581.293579,650.851440 
M739.874023,550.468628 
	C730.917786,546.573242 724.531372,547.743164 718.359863,554.725708 
	C714.171387,559.464722 713.341187,564.999268 715.192444,571.028320 
	C717.281189,577.830933 722.109924,581.641418 728.844727,582.535095 
	C735.676636,583.441772 741.685913,581.376221 745.706299,575.243225 
	C751.106628,567.005188 749.720703,557.572937 739.874023,550.468628 
M419.655334,779.147156 
	C418.645386,776.164307 417.202362,773.044434 413.534454,773.913635 
	C409.636383,774.837341 408.932861,778.317017 409.447449,781.943787 
	C410.051971,786.204285 410.811890,790.444458 411.341461,794.713623 
	C413.494202,812.067627 421.121948,825.471924 438.016724,832.429382 
	C446.647888,835.983826 455.368896,835.334167 464.244324,833.583252 
	C460.086823,831.789673 455.894318,830.295410 451.589691,829.273560 
	C437.933380,826.031677 425.041901,812.492920 422.728668,798.635376 
	C421.689484,792.410522 420.779816,786.164062 419.655334,779.147156 
M525.776245,624.501099 
	C525.758423,619.337830 525.681274,614.173889 525.745605,609.011658 
	C525.783264,605.993713 524.187134,604.769592 521.441711,604.759216 
	C518.761353,604.749084 517.589844,606.390869 517.435852,608.889587 
	C517.364258,610.051331 517.396790,611.220154 517.398926,612.385742 
	C517.438965,634.185913 517.481506,655.986084 517.523376,677.786255 
	C517.529236,680.814392 518.418823,682.955322 522.027832,683.000549 
	C525.761108,683.047241 525.797241,680.632996 525.793884,677.966431 
	C525.771545,660.477844 525.779907,642.989319 525.776245,624.501099 
M300.535553,388.476959 
	C299.411407,388.754242 298.279266,389.002808 297.164459,389.313568 
	C291.140289,390.992981 286.560211,397.661316 287.583008,403.241211 
	C288.904022,410.448120 295.384216,415.333557 302.684174,414.625977 
	C308.742584,414.038727 313.602631,408.442261 313.647644,402.001282 
	C313.703430,394.021637 311.307892,391.400726 300.535553,388.476959 
M414.488770,745.034485 
	C413.669769,740.108337 412.794617,735.190674 412.050385,730.253235 
	C411.500458,726.605164 410.294983,723.635132 405.864471,724.057800 
	C401.136505,724.508911 400.964386,728.212036 401.420410,731.538635 
	C402.746338,741.211243 404.412323,750.837708 405.985016,760.475708 
	C406.584137,764.147583 408.713593,766.442810 412.518463,765.623840 
	C416.306152,764.808533 417.136597,761.886902 416.458527,758.239563 
	C415.699646,754.157898 415.247162,750.019348 414.488770,745.034485 
M675.854370,484.606659 
	C672.544739,476.871796 666.595581,471.217957 660.507385,465.807953 
	C657.585022,463.211121 653.969788,463.345093 650.095459,466.302887 
	C663.894043,476.416168 673.538086,488.742004 675.356873,506.104736 
	C680.539001,499.087433 678.896362,492.196228 675.854370,484.606659 
M327.616760,475.494781 
	C327.596436,472.991882 326.112244,471.105774 324.729584,469.289185 
	C322.348511,466.160797 316.767365,465.303833 313.381409,467.322601 
	C309.619965,469.565338 307.880157,475.095612 309.656311,478.891541 
	C311.490356,482.811218 314.731934,484.768372 318.820831,484.479095 
	C323.702606,484.133728 326.362946,480.792938 327.616760,475.494781 
M615.216003,642.715637 
	C621.719238,633.191650 621.159180,621.966736 613.565552,618.936340 
	C617.130981,636.698792 606.850403,647.829468 594.827820,658.213196 
	C603.468750,655.587585 609.726501,650.220642 615.216003,642.715637 
M266.320618,438.838837 
	C264.576416,439.739349 261.503937,438.727264 261.327026,441.846771 
	C261.168610,444.640533 263.464294,445.245819 265.652588,445.685211 
	C267.987183,446.153992 267.220184,448.289581 267.806000,449.685608 
	C268.385223,451.065918 268.758636,452.701965 270.684418,452.554504 
	C272.379578,452.424713 273.450897,451.241302 273.520752,449.605560 
	C273.630676,447.031403 274.583130,445.638092 277.352386,445.588348 
	C279.248016,445.554321 280.476013,444.369904 280.404907,442.403687 
	C280.344391,440.729889 279.267120,439.497070 277.586395,439.488220 
	C274.536835,439.472198 273.661407,437.869080 273.527374,435.134583 
	C273.442535,433.403900 271.951782,432.546692 270.377106,432.601440 
	C268.807831,432.655975 267.601257,433.552429 267.394562,435.351715 
	C267.282410,436.327911 267.062622,437.291748 266.320618,438.838837 
M774.065735,484.448303 
	C774.433960,481.069031 774.047180,477.284760 779.205017,477.074097 
	C780.624023,477.016144 781.204529,475.378540 781.083313,473.945465 
	C780.949463,472.362427 779.687073,471.589783 778.344299,471.507141 
	C776.045105,471.365601 774.615234,470.706238 774.450378,468.092621 
	C774.361755,466.688232 773.298157,465.701782 771.753784,465.603485 
	C770.237976,465.506989 768.933594,466.274261 768.699402,467.645813 
	C768.266785,470.179321 766.876648,471.260651 764.501160,471.792603 
	C763.167664,472.091217 762.333618,473.287292 762.268799,474.791931 
	C762.211670,476.121796 762.814575,477.370667 764.086426,477.352600 
	C767.231201,477.308044 768.072632,479.179993 769.084351,481.699097 
	C769.720764,483.283875 771.257935,485.117371 774.065735,484.448303 
M731.182983,515.568604 
	C734.013245,518.564026 737.223267,519.823608 740.908875,517.213135 
	C743.845886,515.132935 745.437012,512.345947 744.113464,508.605652 
	C742.545227,504.173737 738.189575,502.035950 734.092529,503.645355 
	C729.909058,505.288696 728.615906,509.730316 731.182983,515.568604 
M669.242249,401.054138 
	C677.764771,404.060425 684.299438,410.039734 691.398010,417.012665 
	C688.019043,402.658936 663.354126,390.083923 651.884216,396.350159 
	C657.804749,397.773621 663.339172,398.682739 669.242249,401.054138 
M622.885315,534.652771 
	C621.292480,531.541809 621.255676,527.036987 615.226868,526.285461 
	C617.590881,533.341248 619.780640,539.376465 620.866028,545.748596 
	C621.957397,552.155396 620.580444,558.468933 620.441345,565.856445 
	C623.266174,563.253113 624.043823,560.960571 624.705872,558.370361 
	C626.717896,550.498352 625.183655,542.939880 622.885315,534.652771 
M483.618042,569.145874 
	C487.088409,565.554016 487.088409,565.554016 484.361847,561.893433 
	C475.404327,572.837341 465.184753,581.990723 450.985107,585.281189 
	C464.729034,586.118225 474.662750,579.374756 483.618042,569.145874 
M262.966797,544.670471 
	C266.024567,544.640747 269.266754,543.927429 269.003448,540.353394 
	C268.759674,537.045105 265.449097,536.383057 262.458374,536.343689 
	C259.795044,536.308594 257.126282,536.259949 254.468002,536.386963 
	C251.633865,536.522400 249.561996,537.951172 249.517990,540.922302 
	C249.475937,543.760315 252.034897,544.265381 254.125717,544.516968 
	C256.754608,544.833252 259.443970,544.647034 262.966797,544.670471 
M279.434967,510.401855 
	C279.436066,514.029419 279.217133,517.675537 279.519897,521.277771 
	C279.704407,523.473267 281.006226,525.582764 283.589630,525.463501 
	C286.266357,525.339966 287.633179,523.513672 287.638611,520.789795 
	C287.644501,517.819824 287.623474,514.849731 287.650665,511.880005 
	C287.672150,509.532104 286.926178,507.528656 284.604553,506.736542 
	C282.035858,505.860107 280.639954,507.553101 279.434967,510.401855 
M269.517365,550.251648 
	C265.644958,552.338562 263.136139,555.922668 260.117096,558.930298 
	C258.547729,560.493713 257.397034,562.495422 259.625549,564.505920 
	C261.519379,566.214478 263.644318,566.105713 265.432556,564.472839 
	C268.233032,561.915649 271.050446,559.322205 273.471893,556.419739 
	C276.060059,553.317261 274.510254,550.569458 269.517365,550.251648 
M756.758240,365.650452 
	C759.373901,365.382111 761.531860,364.123169 761.339905,361.387726 
	C761.128845,358.379608 758.456055,357.505096 755.836365,357.416290 
	C752.683777,357.309357 749.482788,357.252655 746.375610,357.690857 
	C744.457153,357.961426 742.342041,359.102814 742.546448,361.592224 
	C742.748352,364.051086 744.481262,365.453033 746.921448,365.580353 
	C749.912720,365.736481 752.916443,365.655579 756.758240,365.650452 
M730.751099,330.116516 
	C726.391602,327.387817 723.810303,328.487762 723.459412,333.377289 
	C723.258057,336.183380 723.359253,339.016541 723.427551,341.835052 
	C723.489380,344.388306 724.391785,346.653229 727.294006,346.688660 
	C730.413269,346.726715 731.553040,344.342773 731.582703,341.640839 
	C731.622620,338.012939 732.098816,334.351593 730.751099,330.116516 
M300.727051,517.275208 
	C298.423004,519.666504 296.055359,522.000671 293.837860,524.469666 
	C292.419250,526.049255 292.466705,527.774414 294.039886,529.327820 
	C295.583527,530.851990 297.401886,531.081909 298.935181,529.625977 
	C302.629730,526.117676 306.726715,522.959900 309.580292,518.598450 
	C307.312958,514.596436 304.733765,513.411926 300.727051,517.275208 
M266.223389,528.201660 
	C268.089935,529.627197 269.515594,532.449951 272.533386,530.395264 
	C274.303345,529.190247 274.889496,527.291992 273.642212,525.607178 
	C270.986450,522.019897 268.251404,518.432678 264.281586,516.106628 
	C262.444244,515.029968 260.749084,515.219788 259.336670,516.814270 
	C257.814331,518.532898 258.308807,520.207581 259.736176,521.693787 
	C261.697449,523.735779 263.721741,525.717285 266.223389,528.201660 
M306.099060,556.407715 
	C303.721222,554.378967 302.200806,551.461609 299.169250,550.075562 
	C297.173981,549.163330 295.688385,549.381897 294.376099,551.103882 
	C293.184692,552.667236 293.225922,554.152832 294.622284,555.554871 
	C297.550201,558.494690 300.505066,561.407837 303.415710,564.364624 
	C304.942047,565.915161 306.421936,565.349670 307.869781,564.338806 
	C309.435791,563.245361 310.001923,561.752136 309.000427,560.028076 
	C308.343903,558.897949 307.422241,557.921814 306.099060,556.407715 
M280.493835,558.413086 
	C280.450439,562.377380 280.373505,566.341614 280.376587,570.305908 
	C280.378357,572.560242 281.436493,574.365479 283.760864,574.412964 
	C286.228394,574.463501 287.658752,572.907288 287.644318,570.274658 
	C287.625305,566.803650 287.626434,563.332336 287.649475,559.861450 
	C287.662476,557.904541 287.220184,556.169250 285.166351,555.476318 
	C283.066467,554.767883 281.688263,555.821655 280.493835,558.413086 
M749.976624,336.847504 
	C746.797424,337.328674 737.481873,345.168213 736.972168,347.927765 
	C736.569092,350.109314 737.948792,351.788513 739.763794,351.951233 
	C745.131714,352.432343 746.866150,347.280243 750.164795,344.558136 
	C752.001953,343.042145 753.435608,341.123199 751.961548,338.532379 
	C751.651062,337.986633 751.046509,337.608154 749.976624,336.847504 
M304.902344,543.668884 
	C308.044769,543.596313 311.205383,543.702759 314.322906,543.385620 
	C316.261383,543.188416 317.759644,541.854370 317.666626,539.704041 
	C317.573425,537.549500 316.056061,536.484131 314.004761,536.413574 
	C310.861206,536.305420 307.711945,536.374023 304.565643,536.329712 
	C301.771667,536.290344 298.724548,536.504333 298.625427,539.983582 
	C298.533905,543.195923 301.415222,543.604980 304.902344,543.668884 
M705.779907,379.196838 
	C704.546753,381.059540 701.294739,382.368408 704.080627,385.337280 
	C706.670898,388.097687 709.029602,386.358124 711.059204,384.681061 
	C713.475403,382.684540 715.706116,380.419556 717.770508,378.055481 
	C719.331238,376.268097 718.777283,374.315857 717.170105,372.727509 
	C715.572571,371.148651 713.886108,371.324005 712.328064,372.792511 
	C710.274780,374.727692 708.282471,376.727509 705.779907,379.196838 
M737.591858,375.267639 
	C739.394348,379.612274 743.272095,382.053345 746.608826,384.959015 
	C748.103394,386.260406 750.027039,386.488953 751.583313,385.007172 
	C753.425293,383.253235 752.735962,381.282623 751.329041,379.688782 
	C749.139404,377.208466 746.885681,374.751038 744.411133,372.564423 
	C741.259583,369.779510 738.736328,370.185669 737.591858,375.267639 
M701.703064,365.675262 
	C704.013611,365.669769 706.324158,365.665161 708.634705,365.658539 
	C710.876526,365.652100 712.695679,364.700531 712.955505,362.440491 
	C713.199707,360.316010 711.406860,359.089966 709.586243,358.750793 
	C705.516785,357.992706 701.367676,358.099243 697.286621,358.726074 
	C695.598328,358.985382 694.198853,360.084167 694.299866,362.112915 
	C694.394409,364.012634 695.583557,365.132843 697.359985,365.491425 
	C698.477661,365.717041 699.659729,365.623505 701.703064,365.675262 
M702.633423,340.633942 
	C704.430298,345.269196 708.115662,348.303284 711.874329,351.180359 
	C713.365417,352.321747 715.418335,352.408234 716.891663,350.916199 
	C718.468567,349.319336 717.851135,347.424133 716.624817,345.996796 
	C714.589417,343.627777 712.360901,341.413574 710.102417,339.250366 
	C707.457886,336.717346 704.920166,336.477386 702.633423,340.633942 
M724.433533,380.469330 
	C724.425110,384.126495 724.318970,387.787048 724.446472,391.439453 
	C724.518188,393.492340 725.619324,394.884247 727.911316,394.857025 
	C730.102600,394.830994 731.402222,393.643158 731.516846,391.527863 
	C731.687622,388.376587 731.640625,385.212158 731.639832,382.053345 
	C731.639343,380.053162 731.801941,377.867249 729.341248,377.067566 
	C726.919861,376.280670 725.667419,377.884247 724.433533,380.469330 
M553.805603,578.288818 
	C558.380981,566.183105 558.507080,564.957886 555.044067,561.821594 
	C552.672974,571.936401 551.055176,582.099243 545.008911,590.749634 
	C546.255371,590.134033 547.473633,589.474609 548.112732,588.453003 
	C550.038269,585.375061 551.738403,582.156189 553.805603,578.288818 
M541.573669,663.513184 
	C541.173279,662.039795 540.777161,660.560669 538.695740,661.300537 
	C537.031372,671.394714 537.961060,681.272156 541.625671,683.295349 
	C541.625671,676.660339 541.625671,670.495667 541.573669,663.513184 
M540.700012,614.419861 
	C542.191223,610.083923 542.410278,605.889282 539.360779,602.039307 
	C538.860046,606.348267 536.024292,610.785095 540.700012,614.419861 
M554.738281,299.955872 
	C557.868835,299.316040 556.774414,296.775238 556.367615,295.252594 
	C555.449890,291.818359 554.352173,288.337921 551.233521,284.855072 
	C552.886536,290.228760 552.305237,295.111420 554.738281,299.955872 
M413.666870,531.440552 
	C417.469635,530.977600 421.294006,530.570801 424.098907,527.442322 
	C418.485321,527.307495 413.849670,530.363586 408.240082,531.618164 
	C410.316315,533.079041 411.613098,531.790344 413.666870,531.440552 
M480.290863,296.204712 
	C481.367981,297.454315 482.069305,299.288879 484.664734,299.103760 
	C483.067383,294.823395 479.376831,293.343781 476.242035,290.334564 
	C476.972595,293.051971 478.825256,294.076416 480.290863,296.204712 
z"/>
<path fill="#000000" opacity="1.000000" stroke="none" 
	d="
M499.176758,450.523926 
	C497.057770,446.509125 497.461792,443.201996 501.343872,441.343811 
	C505.007935,439.589996 507.486816,441.535919 509.499481,444.799683 
	C514.575989,453.031921 522.910645,452.769775 527.946533,444.334686 
	C529.960144,440.961884 532.618896,438.763000 536.500549,440.960205 
	C540.199890,443.054199 540.273010,446.360474 538.463440,450.022247 
	C534.732178,457.572571 528.508789,461.543945 520.370972,462.232788 
	C511.052277,463.021606 503.959625,459.092865 499.176758,450.523926 
z"/>
<path fill="#000000" opacity="1.000000" stroke="none" 
	d="
M483.561554,419.107971 
	C480.633179,420.717926 478.056732,420.744202 476.003937,418.450104 
	C473.831573,416.022522 474.303772,413.249146 475.640717,410.548248 
	C477.946411,405.890228 483.346344,403.228851 489.480743,403.717651 
	C494.565277,404.122772 499.493744,408.023132 500.920074,412.743652 
	C501.727753,415.416687 501.195862,417.817566 498.898651,419.368500 
	C496.300720,421.122467 493.231659,421.205414 491.220123,418.714539 
	C488.406097,415.230011 486.241821,415.765167 483.561554,419.107971 
z"/>
<path fill="#000000" opacity="1.000000" stroke="none" 
	d="
M550.506226,415.742462 
	C547.892212,417.940063 546.112000,421.397339 541.994141,419.172455 
	C542.002991,416.201294 544.757446,415.366455 545.766663,413.368042 
	C546.561890,411.793427 548.155029,410.487579 546.614807,408.470093 
	C544.413696,405.586761 546.667786,404.545319 548.840759,404.015289 
	C551.611694,403.339417 554.440796,403.528137 557.069946,404.916992 
	C560.457153,406.706238 559.822937,409.359436 558.706970,412.169037 
	C558.536316,412.598663 558.575928,413.162384 558.665833,413.636108 
	C559.050415,415.661926 560.680359,418.215118 558.060913,419.406342 
	C555.541260,420.552185 554.596191,417.568542 553.108582,416.175354 
	C552.452820,415.561249 551.675232,415.399078 550.506226,415.742462 
z"/>
<path fill="#000000" opacity="1.000000" stroke="none" 
	d="
M299.226959,396.854828 
	C302.346649,396.540527 304.587067,397.255615 305.777405,399.921600 
	C306.495392,401.529755 306.563995,403.176086 305.352020,404.594330 
	C303.900665,406.292664 302.170288,407.648651 299.760468,407.078613 
	C297.654663,406.580505 296.314392,405.101105 295.870300,402.989746 
	C295.296753,400.262878 295.985870,398.053314 299.226959,396.854828 
z"/>
</svg>